<svg
                  width="404"
                  height="295"
                  viewBox="0 0 329 237"
                  fill="none"
                  className="-mb-4"
                  xmlns="http://www.w3.org/2000/svg"
                >
                  <path
                    d="M318.657 47.4742C323.329 47.4742 323.329 30.8594 328 30.8594V237H0.999969V137.076C6.0607 137.076 5.67142 143.188 10.3428 143.188C15.0143 143.188 15.0143 125.831 19.6857 125.831C24.3571 125.831 23.5786 131.171 29.0286 131.171C34.4785 131.171 32.9214 141.17 38.3714 141.17C43.8214 141.17 42.6535 137.372 47.7143 137.372C52.775 137.372 51.8018 119.274 57.0571 119.274C62.3125 119.274 60.95 125.178 66.4 125.178C71.85 125.178 70.8768 133.308 75.7428 133.308C80.6089 133.308 79.8303 106.309 85.0857 106.309C90.341 106.309 89.7571 115.654 94.4286 115.654C99.1 115.654 98.3214 102.57 103.771 102.57C109.221 102.57 108.054 110.937 113.114 110.937C118.175 110.937 117.396 76.7282 122.457 76.7282C127.518 76.7282 126.545 86.252 131.8 86.252C137.055 86.252 135.693 92.5419 141.143 92.5419C146.593 92.5419 145.23 76.2238 150.486 76.2238C155.741 76.2238 154.379 84.2345 159.829 84.2345C165.279 84.2345 164.305 71.0317 169.171 71.0317C174.037 71.0317 173.454 48.9577 178.514 48.9577C183.575 48.9577 182.796 85.896 187.857 85.896C192.918 85.896 192.334 60.0243 197.2 60.0243C202.066 60.0243 201.093 71.358 206.543 71.358C211.993 71.358 210.825 81.5346 215.886 81.5346C220.946 81.5346 220.362 64.6824 225.229 64.6824C230.095 64.6824 229.705 80.7039 234.571 80.7039C239.438 80.7039 238.854 73.5832 243.914 73.5832C248.975 73.5832 248.196 58.8969 253.257 58.8969C258.318 58.8969 257.539 64.7714 262.6 64.7714C267.661 64.7714 267.271 43.3205 271.943 43.3205C276.614 43.3205 275.836 72.7228 281.286 72.7228C286.736 72.7228 285.373 52.7554 290.629 52.7554C295.884 52.7554 295.105 60.9738 299.971 60.9738C304.837 60.9738 304.448 40.5019 309.314 40.5019C314.18 40.5019 313.986 47.4742 318.657 47.4742Z"
                    fill="#227BED"
                    fill-opacity="0.12"
                  />
                  <path
                    d="M328 30.8594C323.329 30.8594 323.329 47.4742 318.657 47.4742C313.986 47.4742 314.18 40.5019 309.314 40.5019C304.448 40.5019 304.837 60.9738 299.971 60.9738C295.105 60.9738 295.884 52.7554 290.629 52.7554C285.373 52.7554 286.736 72.7228 281.286 72.7228C275.836 72.7228 276.614 43.3205 271.943 43.3205C267.271 43.3205 267.661 64.7714 262.6 64.7714C257.539 64.7714 258.318 58.8969 253.257 58.8969C248.196 58.8969 248.975 73.5832 243.914 73.5832C238.854 73.5832 239.437 80.7039 234.571 80.7039C229.705 80.7039 230.095 64.6824 225.229 64.6824C220.362 64.6824 220.946 81.5346 215.886 81.5346C210.825 81.5346 211.993 71.358 206.543 71.358C201.093 71.358 202.066 60.0243 197.2 60.0243C192.334 60.0243 192.918 85.896 187.857 85.896C182.796 85.896 183.575 48.9577 178.514 48.9577C173.454 48.9577 174.037 71.0317 169.171 71.0317C164.305 71.0317 165.279 84.2345 159.829 84.2345C154.379 84.2345 155.741 76.2238 150.486 76.2238C145.23 76.2238 146.593 92.5419 141.143 92.5419C135.693 92.5419 137.055 86.252 131.8 86.252C126.545 86.252 127.518 76.7282 122.457 76.7282C117.396 76.7282 118.175 110.937 113.114 110.937C108.054 110.937 109.221 102.57 103.771 102.57C98.3214 102.57 99.1 115.654 94.4286 115.654C89.7571 115.654 90.3411 106.309 85.0857 106.309C79.8303 106.309 80.6089 133.308 75.7429 133.308C70.8768 133.308 71.85 125.178 66.4 125.178C60.95 125.178 62.3125 119.274 57.0571 119.274C51.8018 119.274 52.775 137.372 47.7143 137.372C42.6535 137.372 43.8214 141.17 38.3714 141.17C32.9214 141.17 34.4786 131.171 29.0286 131.171C23.5786 131.171 24.3571 125.831 19.6857 125.831C15.0143 125.831 15.0143 143.188 10.3428 143.188C5.67142 143.188 6.0607 137.076 0.999984 137.076"
                    stroke="#227BED"
                    stroke-width="1.5"
                    stroke-linecap="round"
                    stroke-linejoin="round"
                  />
                  <g filter="url(#filter0_d_1721_492)">
                    <circle
                      cx="45.0425"
                      cy="137.694"
                      r="3.29883"
                      fill="#FFB031"
                    />
                    <path
                      d="M45.8647 138.678L82.604 175.417H138.306"
                      stroke="#FFB031"
                    />
                  </g>
                  <rect
                    x="145.81"
                    y="157.34"
                    width="105.886"
                    height="33.5586"
                    rx="4"
                    fill="white"
                    fill-opacity="0.15"
                  />
                  <rect
                    x="146.31"
                    y="157.84"
                    width="104.886"
                    height="32.5586"
                    rx="3.5"
                    stroke="white"
                    stroke-opacity="0.15"
                  />
                  <path
                    d="M162.951 178.62V175.123L160.13 169.13H161.586L163.263 172.718C163.376 172.952 163.467 173.173 163.536 173.381C163.605 173.58 163.653 173.736 163.679 173.849C163.696 173.736 163.74 173.58 163.809 173.381C163.887 173.173 163.978 172.952 164.082 172.718L165.72 169.13H167.176L164.355 175.123V178.62H162.951ZM171.448 178.737C170.859 178.737 170.347 178.624 169.914 178.399C169.481 178.173 169.147 177.853 168.913 177.437C168.679 177.021 168.562 176.531 168.562 175.968V174.122C168.562 173.55 168.679 173.06 168.913 172.653C169.147 172.237 169.481 171.916 169.914 171.691C170.347 171.465 170.859 171.353 171.448 171.353C172.037 171.353 172.549 171.465 172.982 171.691C173.415 171.916 173.749 172.237 173.983 172.653C174.217 173.06 174.334 173.55 174.334 174.122V175.968C174.334 176.531 174.217 177.021 173.983 177.437C173.749 177.853 173.415 178.173 172.982 178.399C172.549 178.624 172.037 178.737 171.448 178.737ZM171.448 177.502C171.925 177.502 172.293 177.372 172.553 177.112C172.813 176.843 172.943 176.462 172.943 175.968V174.122C172.943 173.619 172.813 173.238 172.553 172.978C172.293 172.718 171.925 172.588 171.448 172.588C170.98 172.588 170.612 172.718 170.343 172.978C170.083 173.238 169.953 173.619 169.953 174.122V175.968C169.953 176.462 170.083 176.843 170.343 177.112C170.612 177.372 170.98 177.502 171.448 177.502ZM179.23 178.75C178.372 178.75 177.687 178.503 177.176 178.009C176.664 177.506 176.409 176.826 176.409 175.968V171.47H177.813V175.968C177.813 176.462 177.938 176.847 178.19 177.125C178.441 177.393 178.788 177.528 179.23 177.528C179.68 177.528 180.031 177.393 180.283 177.125C180.543 176.847 180.673 176.462 180.673 175.968V171.47H182.077V175.968C182.077 176.826 181.817 177.506 181.297 178.009C180.785 178.503 180.096 178.75 179.23 178.75ZM184.464 178.62V171.47H185.816V172.835H186.154L185.725 173.68C185.725 172.908 185.894 172.328 186.232 171.938C186.57 171.539 187.072 171.34 187.74 171.34C188.502 171.34 189.105 171.578 189.547 172.055C189.997 172.523 190.223 173.168 190.223 173.992V174.473H188.78V174.109C188.78 173.597 188.65 173.207 188.39 172.939C188.138 172.661 187.783 172.523 187.324 172.523C186.864 172.523 186.505 172.661 186.245 172.939C185.993 173.216 185.868 173.606 185.868 174.109V178.62H184.464ZM202.628 178.75C202.047 178.75 201.536 178.637 201.094 178.412C200.66 178.178 200.327 177.853 200.093 177.437C199.859 177.021 199.742 176.535 199.742 175.981V174.109C199.742 173.545 199.859 173.06 200.093 172.653C200.327 172.237 200.66 171.916 201.094 171.691C201.536 171.457 202.047 171.34 202.628 171.34C203.217 171.34 203.728 171.457 204.162 171.691C204.595 171.916 204.929 172.237 205.163 172.653C205.397 173.06 205.514 173.545 205.514 174.109V175.383H201.094V175.981C201.094 176.509 201.224 176.912 201.484 177.19C201.752 177.467 202.138 177.606 202.641 177.606C203.048 177.606 203.377 177.536 203.629 177.398C203.88 177.25 204.036 177.038 204.097 176.761H205.488C205.384 177.367 205.072 177.853 204.552 178.217C204.032 178.572 203.39 178.75 202.628 178.75ZM204.162 174.538V174.096C204.162 173.576 204.032 173.173 203.772 172.887C203.512 172.601 203.13 172.458 202.628 172.458C202.134 172.458 201.752 172.601 201.484 172.887C201.224 173.173 201.094 173.58 201.094 174.109V174.434L204.266 174.421L204.162 174.538ZM207.614 178.62V171.47H209.005V172.835H209.343L209.005 173.16C209.005 172.588 209.174 172.141 209.512 171.821C209.85 171.5 210.318 171.34 210.916 171.34C211.627 171.34 212.195 171.569 212.619 172.029C213.044 172.479 213.256 173.09 213.256 173.862V178.62H211.852V174.018C211.852 173.55 211.727 173.19 211.475 172.939C211.224 172.687 210.882 172.562 210.448 172.562C210.006 172.562 209.655 172.696 209.395 172.965C209.144 173.225 209.018 173.606 209.018 174.109V178.62H207.614ZM218.997 178.62C218.347 178.62 217.84 178.442 217.476 178.087C217.112 177.731 216.93 177.237 216.93 176.605V172.744H214.954V171.47H216.93V169.455H218.334V171.47H221.129V172.744H218.334V176.605C218.334 177.099 218.573 177.346 219.049 177.346H220.999V178.62H218.997ZM223.438 178.62V171.47H224.79V172.835H225.128L224.699 173.68C224.699 172.908 224.868 172.328 225.206 171.938C225.544 171.539 226.047 171.34 226.714 171.34C227.477 171.34 228.079 171.578 228.521 172.055C228.972 172.523 229.197 173.168 229.197 173.992V174.473H227.754V174.109C227.754 173.597 227.624 173.207 227.364 172.939C227.113 172.661 226.758 172.523 226.298 172.523C225.839 172.523 225.479 172.661 225.219 172.939C224.968 173.216 224.842 173.606 224.842 174.109V178.62H223.438ZM232.143 180.96L233.17 178.204L230.505 171.47H232.052L233.547 175.5C233.608 175.673 233.669 175.881 233.729 176.124C233.79 176.366 233.842 176.566 233.885 176.722C233.92 176.566 233.968 176.366 234.028 176.124C234.089 175.881 234.15 175.673 234.21 175.5L235.614 171.47H237.109L233.625 180.96H232.143Z"
                    fill="white"
                  />
                  <defs>
                    <filter
                      id="filter0_d_1721_492"
                      x="36.7437"
                      y="129.396"
                      width="106.562"
                      height="51.5215"
                      filterUnits="userSpaceOnUse"
                      color-interpolation-filters="sRGB"
                    >
                      <feFlood flood-opacity="0" result="BackgroundImageFix" />
                      <feColorMatrix
                        in="SourceAlpha"
                        type="matrix"
                        values="0 0 0 0 0 0 0 0 0 0 0 0 0 0 0 0 0 0 127 0"
                        result="hardAlpha"
                      />
                      <feOffset />
                      <feGaussianBlur stdDeviation="2.5" />
                      <feComposite in2="hardAlpha" operator="out" />
                      <feColorMatrix
                        type="matrix"
                        values="0 0 0 0 1 0 0 0 0 0.690196 0 0 0 0 0.192157 0 0 0 0.26 0"
                      />
                      <feBlend
                        mode="normal"
                        in2="BackgroundImageFix"
                        result="effect1_dropShadow_1721_492"
                      />
                      <feBlend
                        mode="normal"
                        in="SourceGraphic"
                        in2="effect1_dropShadow_1721_492"
                        result="shape"
                      />
                    </filter>
                  </defs>
                </svg>