<svg width="301" height="224" viewBox="0 0 301 224" fill="none" xmlns="http://www.w3.org/2000/svg">
<g clip-path="url(#clip0_1723_508)">
<path d="M967.171 -75.8825C987.086 -75.8825 987.086 -146.969 1007 -146.969V735H-387V307.475C-365.426 307.475 -367.086 333.625 -347.171 333.625C-327.257 333.625 -327.257 259.365 -307.343 259.365C-287.428 259.365 -290.748 282.214 -267.514 282.214C-244.281 282.214 -250.919 324.993 -227.686 324.993C-204.452 324.993 -209.431 308.745 -187.857 308.745C-166.283 308.745 -170.432 231.312 -148.029 231.312C-125.625 231.312 -131.433 256.573 -108.2 256.573C-84.9667 256.573 -89.1154 291.354 -68.3713 291.354C-47.6273 291.354 -50.9464 175.839 -28.5428 175.839C-6.13928 175.839 -32.9907 237.535 -13.0765 237.535C6.83783 237.535 20.9677 242.655 44.201 242.655C67.4343 242.655 55.5858 237.535 77.1595 237.535C98.7333 237.535 109.198 49.2801 130.771 49.2801C152.345 49.2801 148.196 90.0277 170.6 90.0277C193.004 90.0277 187.195 116.939 210.429 116.939C233.662 116.939 227.854 47.1221 250.257 47.1221C272.661 47.1221 266.852 81.3958 290.086 81.3958C313.319 81.3958 309.17 24.9076 329.914 24.9076C350.658 24.9076 348.169 -69.5355 369.743 -69.5355C391.317 -69.5355 387.998 88.5044 409.571 88.5044C431.145 88.5044 428.656 -22.187 449.4 -22.187C470.144 -22.187 465.995 26.304 489.229 26.304C512.462 26.304 507.483 69.8443 529.057 69.8443C550.631 69.8443 548.142 -2.25746 568.886 -2.25746C589.63 -2.25746 587.97 66.29 608.714 66.29C629.458 66.29 626.969 35.8244 648.543 35.8244C670.117 35.8244 666.798 -27.0107 688.371 -27.0107C709.945 -27.0107 706.626 -1.87666 728.2 -1.87666C749.774 -1.87666 748.114 -93.6541 768.029 -93.6541C787.943 -93.6541 784.624 32.1432 807.857 32.1432C831.09 32.1432 825.282 -53.2872 847.686 -53.2872C870.089 -53.2872 866.77 -18.1249 887.514 -18.1249C908.258 -18.1249 906.599 -105.713 927.343 -105.713C948.087 -105.713 947.257 -75.8825 967.171 -75.8825Z" fill="#227BED" fill-opacity="0.12"/>
<path d="M1007 -146.969C987.086 -146.969 987.086 -75.8825 967.171 -75.8825C947.257 -75.8825 948.087 -105.713 927.343 -105.713C906.599 -105.713 908.258 -18.1249 887.514 -18.1249C866.77 -18.1249 870.089 -53.2872 847.686 -53.2872C825.282 -53.2872 831.09 32.1432 807.857 32.1432C784.624 32.1432 787.943 -93.6541 768.029 -93.6541C748.114 -93.6541 749.774 -1.87666 728.2 -1.87666C706.626 -1.87666 709.945 -27.0107 688.371 -27.0107C666.798 -27.0107 670.117 35.8244 648.543 35.8244C626.969 35.8244 629.458 66.29 608.714 66.29C587.97 66.29 589.63 -2.25746 568.886 -2.25746C548.142 -2.25746 550.631 69.8443 529.057 69.8443C507.483 69.8443 512.462 26.304 489.229 26.304C465.995 26.304 470.144 -22.187 449.4 -22.187C428.656 -22.187 431.145 88.5044 409.571 88.5044C387.998 88.5044 391.317 -69.5355 369.743 -69.5355C348.169 -69.5355 350.658 24.9076 329.914 24.9076C309.17 24.9076 313.319 81.3958 290.086 81.3958C266.852 81.3958 272.661 47.1221 250.257 47.1221C227.854 47.1221 233.662 116.939 210.429 116.939C187.195 116.939 193.004 90.0277 170.6 90.0277C148.196 90.0277 152.345 49.2801 130.771 49.2801C109.198 49.2801 99.0772 235.64 77.5034 235.64C55.9296 235.64 31.9159 241.055 8.68256 241.055C-14.5508 241.055 -0.521872 234.016 -20.4362 234.016C-40.3504 234.016 -6.13927 175.839 -28.5428 175.839C-50.9464 175.839 -47.6273 291.354 -68.3713 291.354C-89.1154 291.354 -84.9666 256.573 -108.2 256.573C-131.433 256.573 -125.625 231.312 -148.029 231.312C-170.432 231.312 -166.283 308.745 -187.857 308.745C-209.431 308.745 -204.452 324.993 -227.686 324.993C-250.919 324.993 -244.281 282.214 -267.514 282.214C-290.748 282.214 -287.428 259.365 -307.343 259.365C-327.257 259.365 -327.257 333.625 -347.171 333.625C-367.086 333.625 -365.426 307.475 -387 307.475" stroke="#227BED" stroke-width="1.5" stroke-linecap="round" stroke-linejoin="round"/>
<g filter="url(#filter0_d_1723_508)">
<path d="M-4.08545 152.506H321.651" stroke="#FFB031" stroke-dasharray="6 6"/>
</g>
<g filter="url(#filter1_b_1723_508)">
<rect x="2.83252" y="93.3281" width="90.481" height="26.3691" rx="4" fill="white" fill-opacity="0.2"/>
<rect x="3.33252" y="93.8281" width="89.481" height="25.3691" rx="3.5" stroke="white" stroke-opacity="0.15"/>
</g>
<rect x="2.83252" y="159.297" width="90.481" height="26.3691" rx="4" fill="white" fill-opacity="0.2"/>
<rect x="3.33252" y="159.797" width="89.481" height="25.3691" rx="3.5" stroke="white" stroke-opacity="0.15"/>
<path d="M15.7547 110.013V102.713H17.0847L17.8147 105.053C17.8881 105.273 17.9514 105.486 18.0047 105.693C18.0581 105.893 18.0947 106.043 18.1147 106.143C18.1414 106.043 18.1781 105.893 18.2247 105.693C18.2781 105.486 18.3381 105.273 18.4047 105.053L19.1047 102.713H20.4347V110.013H19.4147V107.553C19.4147 107.239 19.4214 106.893 19.4347 106.513C19.4547 106.126 19.4814 105.739 19.5147 105.353C19.5481 104.959 19.5814 104.586 19.6147 104.233C19.6481 103.873 19.6781 103.559 19.7047 103.293L18.6247 106.843H17.5847L16.4847 103.293C16.5181 103.553 16.5514 103.856 16.5847 104.203C16.6181 104.543 16.6481 104.906 16.6747 105.293C16.7014 105.679 16.7247 106.069 16.7447 106.463C16.7647 106.849 16.7747 107.213 16.7747 107.553V110.013H15.7547ZM23.5408 110.113C22.9675 110.113 22.5142 109.966 22.1808 109.673C21.8542 109.373 21.6908 108.966 21.6908 108.453C21.6908 107.933 21.8642 107.526 22.2108 107.233C22.5642 106.933 23.0475 106.783 23.6608 106.783H25.1908V106.273C25.1908 105.973 25.0975 105.739 24.9108 105.573C24.7242 105.406 24.4608 105.323 24.1208 105.323C23.8208 105.323 23.5708 105.389 23.3708 105.523C23.1708 105.649 23.0542 105.819 23.0208 106.033H21.9608C22.0208 105.539 22.2475 105.146 22.6408 104.853C23.0408 104.559 23.5442 104.413 24.1508 104.413C24.8042 104.413 25.3208 104.579 25.7008 104.913C26.0808 105.239 26.2708 105.686 26.2708 106.253V110.013H25.2208V109.003H25.0408L25.2208 108.803C25.2208 109.203 25.0675 109.523 24.7608 109.763C24.4542 109.996 24.0475 110.113 23.5408 110.113ZM23.8608 109.283C24.2475 109.283 24.5642 109.186 24.8108 108.993C25.0642 108.793 25.1908 108.539 25.1908 108.233V107.513H23.6808C23.4008 107.513 23.1775 107.589 23.0108 107.743C22.8508 107.896 22.7708 108.106 22.7708 108.373C22.7708 108.653 22.8675 108.876 23.0608 109.043C23.2542 109.203 23.5208 109.283 23.8608 109.283ZM27.5169 110.013L29.4469 107.173L27.6369 104.513H28.8769L29.8469 106.033C29.8936 106.113 29.9402 106.199 29.9869 106.293C30.0336 106.379 30.0702 106.453 30.0969 106.513C30.1169 106.453 30.1502 106.379 30.1969 106.293C30.2436 106.199 30.2902 106.113 30.3369 106.033L31.3069 104.513H32.5469L30.7369 107.183L32.6569 110.013H31.4169L30.3469 108.363C30.3002 108.283 30.2536 108.193 30.2069 108.093C30.1602 107.993 30.1236 107.913 30.0969 107.853C30.0702 107.913 30.0302 107.993 29.9769 108.093C29.9302 108.193 29.8802 108.283 29.8269 108.363L28.7469 110.013H27.5169ZM40.4791 107.203V106.223H43.6791V107.203H40.4791Z" fill="white" fill-opacity="0.5"/>
<path d="M53.7913 111.413V110.103C53.1513 110.049 52.648 109.846 52.2813 109.493C51.9146 109.133 51.728 108.663 51.7213 108.083H52.7913C52.7913 108.369 52.878 108.606 53.0513 108.793C53.2313 108.973 53.478 109.086 53.7913 109.133V106.773L53.5613 106.713C53.028 106.559 52.6146 106.299 52.3213 105.933C52.0346 105.559 51.8913 105.116 51.8913 104.603C51.8913 104.049 52.0613 103.596 52.4013 103.243C52.7413 102.889 53.2046 102.686 53.7913 102.633V101.313H54.4013V102.623C54.988 102.676 55.4546 102.879 55.8013 103.233C56.148 103.579 56.3246 104.033 56.3313 104.593H55.2513C55.2513 104.319 55.178 104.096 55.0313 103.923C54.8846 103.743 54.6746 103.629 54.4013 103.583V105.833L54.7613 105.943C55.2946 106.089 55.7046 106.349 55.9913 106.723C56.278 107.096 56.4213 107.543 56.4213 108.063C56.4213 108.629 56.238 109.096 55.8713 109.463C55.5113 109.829 55.0213 110.043 54.4013 110.103V111.413H53.7913ZM54.4013 109.143C54.7013 109.096 54.9346 108.983 55.1013 108.803C55.268 108.623 55.3513 108.389 55.3513 108.103C55.3513 107.809 55.258 107.559 55.0713 107.353C54.8913 107.146 54.638 107.016 54.3113 106.963L54.4013 106.753V109.143ZM53.7913 106.133V103.583C53.5246 103.629 53.318 103.736 53.1713 103.903C53.0313 104.063 52.9613 104.273 52.9613 104.533C52.9613 104.853 53.0646 105.123 53.2713 105.343C53.4846 105.556 53.7846 105.683 54.1713 105.723L53.7913 106.133ZM57.9374 110.013V109.053H59.8774V103.653L57.9274 105.103V103.933L59.5974 102.713H60.9574V109.053H62.5274V110.013H57.9374ZM67.0635 110.013V108.493H63.7935V106.873L66.6335 102.713H67.8335L64.8335 107.133V107.523H67.0635V105.813H68.1335V110.013H67.0635ZM72.0396 110.113C71.4062 110.113 70.8929 109.953 70.4996 109.633C70.1062 109.306 69.8862 108.869 69.8396 108.323H70.9096C70.9429 108.589 71.0562 108.796 71.2496 108.943C71.4429 109.089 71.7096 109.163 72.0496 109.163C72.4296 109.163 72.7162 109.063 72.9096 108.863C73.1096 108.656 73.2096 108.369 73.2096 108.003V107.293C73.2096 106.919 73.1129 106.633 72.9196 106.433C72.7262 106.226 72.4396 106.123 72.0596 106.123C71.8196 106.123 71.6129 106.179 71.4396 106.293C71.2662 106.399 71.1396 106.549 71.0596 106.743H69.9896L70.0396 102.713H74.0196V103.693H71.0696L71.0496 105.963H71.3296L71.0396 106.223C71.0396 105.909 71.1629 105.663 71.4096 105.483C71.6562 105.303 71.9862 105.213 72.3996 105.213C72.9929 105.213 73.4529 105.396 73.7796 105.763C74.1129 106.123 74.2796 106.633 74.2796 107.293V108.003C74.2796 108.649 74.0829 109.163 73.6896 109.543C73.2962 109.923 72.7462 110.113 72.0396 110.113ZM78.0557 110.113C77.5957 110.113 77.1957 110.023 76.8557 109.843C76.5223 109.663 76.2623 109.413 76.0757 109.093C75.889 108.766 75.7957 108.386 75.7957 107.953V104.773C75.7957 104.333 75.8857 103.953 76.0657 103.633C76.2523 103.313 76.5157 103.063 76.8557 102.883C77.1957 102.703 77.5957 102.613 78.0557 102.613C78.5223 102.613 78.9223 102.703 79.2557 102.883C79.5957 103.063 79.8557 103.313 80.0357 103.633C80.2223 103.953 80.3157 104.333 80.3157 104.773V107.953C80.3157 108.386 80.2223 108.766 80.0357 109.093C79.849 109.413 79.5857 109.663 79.2457 109.843C78.9123 110.023 78.5157 110.113 78.0557 110.113ZM78.0557 109.183C78.429 109.183 78.7257 109.069 78.9457 108.843C79.1723 108.616 79.2857 108.319 79.2857 107.953V104.773C79.2857 104.406 79.1723 104.109 78.9457 103.883C78.7257 103.656 78.429 103.543 78.0557 103.543C77.6823 103.543 77.3823 103.656 77.1557 103.883C76.9357 104.109 76.8257 104.406 76.8257 104.773V107.953C76.8257 108.319 76.9357 108.616 77.1557 108.843C77.3823 109.069 77.6823 109.183 78.0557 109.183ZM78.0557 106.983C77.869 106.983 77.7157 106.923 77.5957 106.803C77.4823 106.683 77.4257 106.526 77.4257 106.333C77.4257 106.146 77.4823 105.996 77.5957 105.883C77.7157 105.763 77.869 105.703 78.0557 105.703C78.2423 105.703 78.3923 105.763 78.5057 105.883C78.6257 105.996 78.6857 106.146 78.6857 106.333C78.6857 106.526 78.6257 106.683 78.5057 106.803C78.3923 106.923 78.2423 106.983 78.0557 106.983Z" fill="white"/>
<path d="M15.7547 175.981V168.681H17.0847L17.8147 171.021C17.8881 171.241 17.9514 171.455 18.0047 171.661C18.0581 171.861 18.0947 172.011 18.1147 172.111C18.1414 172.011 18.1781 171.861 18.2247 171.661C18.2781 171.455 18.3381 171.241 18.4047 171.021L19.1047 168.681H20.4347V175.981H19.4147V173.521C19.4147 173.208 19.4214 172.861 19.4347 172.481C19.4547 172.095 19.4814 171.708 19.5147 171.321C19.5481 170.928 19.5814 170.555 19.6147 170.201C19.6481 169.841 19.6781 169.528 19.7047 169.261L18.6247 172.811H17.5847L16.4847 169.261C16.5181 169.521 16.5514 169.825 16.5847 170.171C16.6181 170.511 16.6481 170.875 16.6747 171.261C16.7014 171.648 16.7247 172.038 16.7447 172.431C16.7647 172.818 16.7747 173.181 16.7747 173.521V175.981H15.7547ZM21.9008 175.981V175.001H23.8308V171.461H22.1508V170.481H24.8808V175.001H26.6508V175.981H21.9008ZM24.2508 169.531C24.0175 169.531 23.8308 169.471 23.6908 169.351C23.5508 169.225 23.4808 169.058 23.4808 168.851C23.4808 168.638 23.5508 168.471 23.6908 168.351C23.8308 168.225 24.0175 168.161 24.2508 168.161C24.4842 168.161 24.6708 168.225 24.8108 168.351C24.9508 168.471 25.0208 168.638 25.0208 168.851C25.0208 169.058 24.9508 169.225 24.8108 169.351C24.6708 169.471 24.4842 169.531 24.2508 169.531ZM27.9269 175.981V170.481H28.9969V171.531H29.2569L28.9969 171.781C28.9969 171.341 29.1269 170.998 29.3869 170.751C29.6469 170.505 30.0069 170.381 30.4669 170.381C31.0136 170.381 31.4502 170.558 31.7769 170.911C32.1036 171.258 32.2669 171.728 32.2669 172.321V175.981H31.1869V172.441C31.1869 172.081 31.0902 171.805 30.8969 171.611C30.7036 171.418 30.4402 171.321 30.1069 171.321C29.7669 171.321 29.4969 171.425 29.2969 171.631C29.1036 171.831 29.0069 172.125 29.0069 172.511V175.981H27.9269ZM40.4791 173.171V172.191H43.6791V173.171H40.4791Z" fill="white" fill-opacity="0.5"/>
<path d="M53.7913 177.381V176.071C53.1513 176.018 52.648 175.815 52.2813 175.461C51.9146 175.101 51.728 174.631 51.7213 174.051H52.7913C52.7913 174.338 52.878 174.575 53.0513 174.761C53.2313 174.941 53.478 175.055 53.7913 175.101V172.741L53.5613 172.681C53.028 172.528 52.6146 172.268 52.3213 171.901C52.0346 171.528 51.8913 171.085 51.8913 170.571C51.8913 170.018 52.0613 169.565 52.4013 169.211C52.7413 168.858 53.2046 168.655 53.7913 168.601V167.281H54.4013V168.591C54.988 168.645 55.4546 168.848 55.8013 169.201C56.148 169.548 56.3246 170.001 56.3313 170.561H55.2513C55.2513 170.288 55.178 170.065 55.0313 169.891C54.8846 169.711 54.6746 169.598 54.4013 169.551V171.801L54.7613 171.911C55.2946 172.058 55.7046 172.318 55.9913 172.691C56.278 173.065 56.4213 173.511 56.4213 174.031C56.4213 174.598 56.238 175.065 55.8713 175.431C55.5113 175.798 55.0213 176.011 54.4013 176.071V177.381H53.7913ZM54.4013 175.111C54.7013 175.065 54.9346 174.951 55.1013 174.771C55.268 174.591 55.3513 174.358 55.3513 174.071C55.3513 173.778 55.258 173.528 55.0713 173.321C54.8913 173.115 54.638 172.985 54.3113 172.931L54.4013 172.721V175.111ZM53.7913 172.101V169.551C53.5246 169.598 53.318 169.705 53.1713 169.871C53.0313 170.031 52.9613 170.241 52.9613 170.501C52.9613 170.821 53.0646 171.091 53.2713 171.311C53.4846 171.525 53.7846 171.651 54.1713 171.691L53.7913 172.101ZM57.9374 175.981V175.021H59.8774V169.621L57.9274 171.071V169.901L59.5974 168.681H60.9574V175.021H62.5274V175.981H57.9374ZM67.0635 175.981V174.461H63.7935V172.841L66.6335 168.681H67.8335L64.8335 173.101V173.491H67.0635V171.781H68.1335V175.981H67.0635ZM72.0596 176.081C71.5996 176.081 71.1996 175.991 70.8596 175.811C70.5262 175.631 70.2662 175.381 70.0796 175.061C69.8929 174.735 69.7996 174.355 69.7996 173.921V170.741C69.7996 170.301 69.8896 169.921 70.0696 169.601C70.2562 169.281 70.5196 169.031 70.8596 168.851C71.1996 168.671 71.5996 168.581 72.0596 168.581C72.5262 168.581 72.9262 168.671 73.2596 168.851C73.5996 169.031 73.8596 169.281 74.0396 169.601C74.2262 169.921 74.3196 170.301 74.3196 170.741V173.921C74.3196 174.355 74.2262 174.735 74.0396 175.061C73.8529 175.381 73.5896 175.631 73.2496 175.811C72.9162 175.991 72.5196 176.081 72.0596 176.081ZM72.0596 175.151C72.4329 175.151 72.7296 175.038 72.9496 174.811C73.1762 174.585 73.2896 174.288 73.2896 173.921V170.741C73.2896 170.375 73.1762 170.078 72.9496 169.851C72.7296 169.625 72.4329 169.511 72.0596 169.511C71.6862 169.511 71.3862 169.625 71.1596 169.851C70.9396 170.078 70.8296 170.375 70.8296 170.741V173.921C70.8296 174.288 70.9396 174.585 71.1596 174.811C71.3862 175.038 71.6862 175.151 72.0596 175.151ZM72.0596 172.951C71.8729 172.951 71.7196 172.891 71.5996 172.771C71.4862 172.651 71.4296 172.495 71.4296 172.301C71.4296 172.115 71.4862 171.965 71.5996 171.851C71.7196 171.731 71.8729 171.671 72.0596 171.671C72.2462 171.671 72.3962 171.731 72.5096 171.851C72.6296 171.965 72.6896 172.115 72.6896 172.301C72.6896 172.495 72.6296 172.651 72.5096 172.771C72.3962 172.891 72.2462 172.951 72.0596 172.951ZM78.0557 176.081C77.5957 176.081 77.1957 175.991 76.8557 175.811C76.5223 175.631 76.2623 175.381 76.0757 175.061C75.889 174.735 75.7957 174.355 75.7957 173.921V170.741C75.7957 170.301 75.8857 169.921 76.0657 169.601C76.2523 169.281 76.5157 169.031 76.8557 168.851C77.1957 168.671 77.5957 168.581 78.0557 168.581C78.5223 168.581 78.9223 168.671 79.2557 168.851C79.5957 169.031 79.8557 169.281 80.0357 169.601C80.2223 169.921 80.3157 170.301 80.3157 170.741V173.921C80.3157 174.355 80.2223 174.735 80.0357 175.061C79.849 175.381 79.5857 175.631 79.2457 175.811C78.9123 175.991 78.5157 176.081 78.0557 176.081ZM78.0557 175.151C78.429 175.151 78.7257 175.038 78.9457 174.811C79.1723 174.585 79.2857 174.288 79.2857 173.921V170.741C79.2857 170.375 79.1723 170.078 78.9457 169.851C78.7257 169.625 78.429 169.511 78.0557 169.511C77.6823 169.511 77.3823 169.625 77.1557 169.851C76.9357 170.078 76.8257 170.375 76.8257 170.741V173.921C76.8257 174.288 76.9357 174.585 77.1557 174.811C77.3823 175.038 77.6823 175.151 78.0557 175.151ZM78.0557 172.951C77.869 172.951 77.7157 172.891 77.5957 172.771C77.4823 172.651 77.4257 172.495 77.4257 172.301C77.4257 172.115 77.4823 171.965 77.5957 171.851C77.7157 171.731 77.869 171.671 78.0557 171.671C78.2423 171.671 78.3923 171.731 78.5057 171.851C78.6257 171.965 78.6857 172.115 78.6857 172.301C78.6857 172.495 78.6257 172.651 78.5057 172.771C78.3923 172.891 78.2423 172.951 78.0557 172.951Z" fill="white"/>
<rect y="126.013" width="301" height="26.9297" fill="#FFB031" fill-opacity="0.12"/>
<g filter="url(#filter2_d_1723_508)">
<path d="M-4.08545 126.488H321.651" stroke="#FFB031" stroke-dasharray="6 6"/>
</g>
<path d="M48.4268 130.98C48.2315 130.785 47.915 130.785 47.7197 130.98L44.5377 134.162C44.3424 134.358 44.3424 134.674 44.5377 134.87C44.733 135.065 45.0496 135.065 45.2448 134.87L48.0732 132.041L50.9017 134.87C51.0969 135.065 51.4135 135.065 51.6088 134.87C51.804 134.674 51.804 134.358 51.6088 134.162L48.4268 130.98ZM48.5732 147.621L48.5732 131.334L47.5732 131.334L47.5732 147.621L48.5732 147.621Z" fill="#FFB031"/>
</g>
<defs>
<filter id="filter0_d_1723_508" x="-9.08545" y="147.006" width="335.736" height="11" filterUnits="userSpaceOnUse" color-interpolation-filters="sRGB">
<feFlood flood-opacity="0" result="BackgroundImageFix"/>
<feColorMatrix in="SourceAlpha" type="matrix" values="0 0 0 0 0 0 0 0 0 0 0 0 0 0 0 0 0 0 127 0" result="hardAlpha"/>
<feOffset/>
<feGaussianBlur stdDeviation="2.5"/>
<feComposite in2="hardAlpha" operator="out"/>
<feColorMatrix type="matrix" values="0 0 0 0 1 0 0 0 0 0.690196 0 0 0 0 0.192157 0 0 0 0.32 0"/>
<feBlend mode="normal" in2="BackgroundImageFix" result="effect1_dropShadow_1723_508"/>
<feBlend mode="normal" in="SourceGraphic" in2="effect1_dropShadow_1723_508" result="shape"/>
</filter>
<filter id="filter1_b_1723_508" x="-17.1675" y="73.3281" width="130.481" height="66.3691" filterUnits="userSpaceOnUse" color-interpolation-filters="sRGB">
<feFlood flood-opacity="0" result="BackgroundImageFix"/>
<feGaussianBlur in="BackgroundImageFix" stdDeviation="10"/>
<feComposite in2="SourceAlpha" operator="in" result="effect1_backgroundBlur_1723_508"/>
<feBlend mode="normal" in="SourceGraphic" in2="effect1_backgroundBlur_1723_508" result="shape"/>
</filter>
<filter id="filter2_d_1723_508" x="-9.08545" y="120.988" width="335.736" height="11" filterUnits="userSpaceOnUse" color-interpolation-filters="sRGB">
<feFlood flood-opacity="0" result="BackgroundImageFix"/>
<feColorMatrix in="SourceAlpha" type="matrix" values="0 0 0 0 0 0 0 0 0 0 0 0 0 0 0 0 0 0 127 0" result="hardAlpha"/>
<feOffset/>
<feGaussianBlur stdDeviation="2.5"/>
<feComposite in2="hardAlpha" operator="out"/>
<feColorMatrix type="matrix" values="0 0 0 0 1 0 0 0 0 0.690196 0 0 0 0 0.192157 0 0 0 0.32 0"/>
<feBlend mode="normal" in2="BackgroundImageFix" result="effect1_dropShadow_1723_508"/>
<feBlend mode="normal" in="SourceGraphic" in2="effect1_dropShadow_1723_508" result="shape"/>
</filter>
<clipPath id="clip0_1723_508">
<rect width="301" height="224" fill="white"/>
</clipPath>
</defs>
</svg>
