<svg
                  width="400"
                  height="295"
                  viewBox="0 0 301 224"
                  fill="none"
                  xmlns="http://www.w3.org/2000/svg"
                >
                  <g clip-path="url(#clip0_1723_508)">
                    <path
                      d="M-1123.37 -141.102C-1154.69 -141.102 -1154.69 -252.708 -1186 -252.708V1132H1006V460.778C972.076 460.778 974.686 501.833 943.371 501.833C912.057 501.833 912.057 385.244 880.743 385.244C849.428 385.244 854.648 421.118 818.114 421.118C781.581 421.118 792.019 488.281 755.486 488.281C718.952 488.281 726.781 462.771 692.857 462.771C658.933 462.771 665.457 341.199 630.229 341.199C595 341.199 604.133 380.859 567.6 380.859C531.067 380.859 537.59 435.467 504.971 435.467C472.352 435.467 477.572 254.106 442.343 254.106C407.114 254.106 411.029 316.885 379.714 316.885C348.4 316.885 353.619 228.994 317.086 228.994C280.552 228.994 288.381 285.196 254.457 285.196C220.533 285.196 225.752 55.406 191.829 55.406C157.905 55.406 164.429 119.381 129.2 119.381C93.9714 119.381 103.105 161.632 66.5714 161.632C30.0381 161.632 39.1715 52.0179 3.94287 52.0179C-31.2856 52.0179 -22.1523 105.828 -58.6857 105.828C-95.219 105.828 -88.6953 17.1408 -121.314 17.1408C-153.933 17.1408 -150.019 -131.137 -183.943 -131.137C-217.867 -131.137 -212.648 116.989 -246.571 116.989C-280.495 116.989 -276.581 -56.7987 -309.2 -56.7987C-341.819 -56.7987 -335.295 19.3331 -371.829 19.3331C-408.362 19.3331 -400.533 87.6923 -434.457 87.6923C-468.381 87.6923 -464.467 -25.5089 -497.086 -25.5089C-529.705 -25.5089 -527.095 82.1119 -559.714 82.1119C-592.333 82.1119 -588.419 34.2804 -622.343 34.2804C-656.267 34.2804 -651.048 -64.372 -684.971 -64.372C-718.895 -64.372 -713.676 -24.911 -747.6 -24.911C-781.524 -24.911 -778.914 -169.003 -810.229 -169.003C-841.543 -169.003 -836.324 28.5008 -872.857 28.5008C-909.39 28.5008 -900.257 -105.627 -935.486 -105.627C-970.714 -105.627 -965.495 -50.4211 -998.114 -50.4211C-1030.73 -50.4211 -1028.12 -187.937 -1060.74 -187.937C-1093.36 -187.937 -1092.06 -141.102 -1123.37 -141.102Z"
                      fill="#227BED"
                      fill-opacity="0.12"
                    />
                    <path
                      d="M-1186 -252.708C-1154.69 -252.708 -1154.69 -141.102 -1123.37 -141.102C-1092.06 -141.102 -1093.36 -187.937 -1060.74 -187.937C-1028.12 -187.937 -1030.73 -50.4212 -998.114 -50.4212C-965.495 -50.4212 -970.714 -105.627 -935.486 -105.627C-900.257 -105.627 -909.39 28.5008 -872.857 28.5008C-836.324 28.5008 -841.543 -169.003 -810.229 -169.003C-778.914 -169.003 -781.524 -24.9111 -747.6 -24.9111C-713.676 -24.9111 -718.895 -64.372 -684.971 -64.372C-651.048 -64.372 -656.267 34.2804 -622.343 34.2804C-588.419 34.2804 -592.333 82.1119 -559.714 82.1119C-527.095 82.1119 -529.705 -25.5089 -497.086 -25.5089C-464.467 -25.5089 -468.381 87.6922 -434.457 87.6922C-400.533 87.6922 -408.362 19.333 -371.829 19.333C-335.295 19.333 -341.819 -56.7987 -309.2 -56.7987C-276.581 -56.7987 -280.495 116.989 -246.571 116.989C-212.648 116.989 -217.867 -131.137 -183.943 -131.137C-150.019 -131.137 -153.933 17.1408 -121.314 17.1408C-88.6953 17.1408 -95.219 105.828 -58.6857 105.828C-22.1524 105.828 -31.2857 52.0179 3.94291 52.0179C39.1715 52.0179 30.0381 161.632 66.5714 161.632C103.105 161.632 93.9714 119.381 129.2 119.381C164.429 119.381 157.905 55.406 191.829 55.406C225.752 55.406 220.533 285.196 254.457 285.196C288.381 285.196 280.552 228.994 317.086 228.994C353.619 228.994 348.4 316.885 379.714 316.885C411.029 316.885 407.114 254.106 442.343 254.106C477.571 254.106 472.352 435.467 504.971 435.467C537.59 435.467 531.067 380.859 567.6 380.859C604.133 380.859 595 341.199 630.229 341.199C665.457 341.199 658.933 462.771 692.857 462.771C726.781 462.771 718.952 488.281 755.486 488.281C792.019 488.281 781.581 421.118 818.114 421.118C854.648 421.118 849.429 385.244 880.743 385.244C912.057 385.244 912.057 501.833 943.371 501.833C974.686 501.833 972.076 460.778 1006 460.778"
                      stroke="#227BED"
                      stroke-width="1.5"
                      stroke-linecap="round"
                      stroke-linejoin="round"
                    />
                    <g filter="url(#filter0_d_1723_508)">
                      <path
                        d="M-4.08545 182.497H321.651"
                        stroke="#FFB031"
                        stroke-dasharray="6 6"
                      />
                    </g>
                    <path
                      d="M126.53 170.227C126.037 170.227 125.613 170.147 125.26 169.987C124.907 169.82 124.633 169.587 124.44 169.287C124.247 168.98 124.15 168.617 124.15 168.197H125.22C125.22 168.53 125.337 168.794 125.57 168.987C125.803 169.174 126.127 169.267 126.54 169.267C126.927 169.267 127.23 169.174 127.45 168.987C127.67 168.8 127.78 168.544 127.78 168.217C127.78 167.944 127.703 167.707 127.55 167.507C127.403 167.307 127.19 167.17 126.91 167.097L125.99 166.827C125.457 166.674 125.043 166.414 124.75 166.047C124.463 165.674 124.32 165.23 124.32 164.717C124.32 164.317 124.41 163.967 124.59 163.667C124.77 163.367 125.027 163.134 125.36 162.967C125.693 162.8 126.087 162.717 126.54 162.717C127.207 162.717 127.74 162.897 128.14 163.257C128.547 163.617 128.753 164.1 128.76 164.707H127.68C127.68 164.387 127.577 164.137 127.37 163.957C127.17 163.77 126.887 163.677 126.52 163.677C126.167 163.677 125.89 163.764 125.69 163.937C125.49 164.104 125.39 164.34 125.39 164.647C125.39 164.92 125.463 165.157 125.61 165.357C125.763 165.557 125.98 165.697 126.26 165.777L127.19 166.057C127.723 166.204 128.133 166.464 128.42 166.837C128.707 167.21 128.85 167.657 128.85 168.177C128.85 168.584 128.753 168.944 128.56 169.257C128.367 169.564 128.097 169.804 127.75 169.977C127.403 170.144 126.997 170.227 126.53 170.227ZM133.096 170.127C132.596 170.127 132.206 169.99 131.926 169.717C131.646 169.444 131.506 169.064 131.506 168.577V165.607H129.986V164.627H131.506V163.077H132.586V164.627H134.736V165.607H132.586V168.577C132.586 168.957 132.769 169.147 133.136 169.147H134.636V170.127H133.096ZM138.492 170.217C138.039 170.217 137.646 170.13 137.312 169.957C136.979 169.784 136.722 169.537 136.542 169.217C136.362 168.897 136.272 168.52 136.272 168.087V166.667C136.272 166.227 136.362 165.85 136.542 165.537C136.722 165.217 136.979 164.97 137.312 164.797C137.646 164.624 138.039 164.537 138.492 164.537C138.946 164.537 139.339 164.624 139.672 164.797C140.006 164.97 140.262 165.217 140.442 165.537C140.622 165.85 140.712 166.227 140.712 166.667V168.087C140.712 168.52 140.622 168.897 140.442 169.217C140.262 169.537 140.006 169.784 139.672 169.957C139.339 170.13 138.946 170.217 138.492 170.217ZM138.492 169.267C138.859 169.267 139.142 169.167 139.342 168.967C139.542 168.76 139.642 168.467 139.642 168.087V166.667C139.642 166.28 139.542 165.987 139.342 165.787C139.142 165.587 138.859 165.487 138.492 165.487C138.132 165.487 137.849 165.587 137.642 165.787C137.442 165.987 137.342 166.28 137.342 166.667V168.087C137.342 168.467 137.442 168.76 137.642 168.967C137.849 169.167 138.132 169.267 138.492 169.267ZM142.328 171.927V164.627H143.398V165.677H143.628L143.398 165.927C143.398 165.494 143.532 165.154 143.798 164.907C144.072 164.654 144.435 164.527 144.888 164.527C145.442 164.527 145.882 164.714 146.208 165.087C146.542 165.454 146.708 165.957 146.708 166.597V168.147C146.708 168.574 146.632 168.944 146.478 169.257C146.332 169.564 146.122 169.804 145.848 169.977C145.582 170.144 145.262 170.227 144.888 170.227C144.442 170.227 144.082 170.104 143.808 169.857C143.535 169.604 143.398 169.26 143.398 168.827L143.628 169.077H143.378L143.408 170.357V171.927H142.328ZM144.518 169.287C144.872 169.287 145.145 169.187 145.338 168.987C145.538 168.78 145.638 168.484 145.638 168.097V166.657C145.638 166.27 145.538 165.977 145.338 165.777C145.145 165.57 144.872 165.467 144.518 165.467C144.178 165.467 143.908 165.574 143.708 165.787C143.508 165.994 143.408 166.284 143.408 166.657V168.097C143.408 168.47 143.508 168.764 143.708 168.977C143.908 169.184 144.178 169.287 144.518 169.287ZM154.57 170.127V162.827H155.65V169.137H158.84V170.127H154.57ZM162.477 170.217C162.023 170.217 161.63 170.13 161.297 169.957C160.963 169.784 160.707 169.537 160.527 169.217C160.347 168.897 160.257 168.52 160.257 168.087V166.667C160.257 166.227 160.347 165.85 160.527 165.537C160.707 165.217 160.963 164.97 161.297 164.797C161.63 164.624 162.023 164.537 162.477 164.537C162.93 164.537 163.323 164.624 163.657 164.797C163.99 164.97 164.247 165.217 164.427 165.537C164.607 165.85 164.697 166.227 164.697 166.667V168.087C164.697 168.52 164.607 168.897 164.427 169.217C164.247 169.537 163.99 169.784 163.657 169.957C163.323 170.13 162.93 170.217 162.477 170.217ZM162.477 169.267C162.843 169.267 163.127 169.167 163.327 168.967C163.527 168.76 163.627 168.467 163.627 168.087V166.667C163.627 166.28 163.527 165.987 163.327 165.787C163.127 165.587 162.843 165.487 162.477 165.487C162.117 165.487 161.833 165.587 161.627 165.787C161.427 165.987 161.327 166.28 161.327 166.667V168.087C161.327 168.467 161.427 168.76 161.627 168.967C161.833 169.167 162.117 169.267 162.477 169.267ZM168.283 170.217C167.889 170.217 167.543 170.154 167.243 170.027C166.949 169.9 166.716 169.727 166.543 169.507C166.376 169.28 166.279 169.014 166.253 168.707H167.333C167.359 168.887 167.456 169.034 167.623 169.147C167.789 169.254 168.009 169.307 168.283 169.307H168.713C169.039 169.307 169.286 169.24 169.453 169.107C169.619 168.974 169.703 168.797 169.703 168.577C169.703 168.364 169.626 168.197 169.473 168.077C169.326 167.95 169.106 167.867 168.813 167.827L168.103 167.717C167.516 167.624 167.083 167.457 166.803 167.217C166.529 166.97 166.393 166.607 166.393 166.127C166.393 165.62 166.556 165.23 166.883 164.957C167.216 164.677 167.706 164.537 168.353 164.537H168.733C169.306 164.537 169.763 164.67 170.103 164.937C170.449 165.197 170.646 165.547 170.693 165.987H169.613C169.586 165.827 169.496 165.697 169.343 165.597C169.196 165.497 168.993 165.447 168.733 165.447H168.353C168.039 165.447 167.809 165.507 167.663 165.627C167.523 165.74 167.453 165.91 167.453 166.137C167.453 166.337 167.516 166.487 167.643 166.587C167.769 166.687 167.966 166.757 168.233 166.797L168.963 166.917C169.583 167.004 170.036 167.177 170.323 167.437C170.616 167.69 170.763 168.06 170.763 168.547C170.763 169.074 170.589 169.484 170.243 169.777C169.903 170.07 169.393 170.217 168.713 170.217H168.283ZM174.279 170.217C173.885 170.217 173.539 170.154 173.239 170.027C172.945 169.9 172.712 169.727 172.539 169.507C172.372 169.28 172.275 169.014 172.249 168.707H173.329C173.355 168.887 173.452 169.034 173.619 169.147C173.785 169.254 174.005 169.307 174.279 169.307H174.709C175.035 169.307 175.282 169.24 175.449 169.107C175.615 168.974 175.699 168.797 175.699 168.577C175.699 168.364 175.622 168.197 175.469 168.077C175.322 167.95 175.102 167.867 174.809 167.827L174.099 167.717C173.512 167.624 173.079 167.457 172.799 167.217C172.525 166.97 172.389 166.607 172.389 166.127C172.389 165.62 172.552 165.23 172.879 164.957C173.212 164.677 173.702 164.537 174.349 164.537H174.729C175.302 164.537 175.759 164.67 176.099 164.937C176.445 165.197 176.642 165.547 176.689 165.987H175.609C175.582 165.827 175.492 165.697 175.339 165.597C175.192 165.497 174.989 165.447 174.729 165.447H174.349C174.035 165.447 173.805 165.507 173.659 165.627C173.519 165.74 173.449 165.91 173.449 166.137C173.449 166.337 173.512 166.487 173.639 166.587C173.765 166.687 173.962 166.757 174.229 166.797L174.959 166.917C175.579 167.004 176.032 167.177 176.319 167.437C176.612 167.69 176.759 168.06 176.759 168.547C176.759 169.074 176.585 169.484 176.239 169.777C175.899 170.07 175.389 170.217 174.709 170.217H174.279Z"
                      fill="white"
                    />
                  </g>
                  <defs>
                    <filter
                      id="filter0_d_1723_508"
                      x="-9.08545"
                      y="176.997"
                      width="335.736"
                      height="11"
                      filterUnits="userSpaceOnUse"
                      color-interpolation-filters="sRGB"
                    >
                      <feFlood flood-opacity="0" result="BackgroundImageFix" />
                      <feColorMatrix
                        in="SourceAlpha"
                        type="matrix"
                        values="0 0 0 0 0 0 0 0 0 0 0 0 0 0 0 0 0 0 127 0"
                        result="hardAlpha"
                      />
                      <feOffset />
                      <feGaussianBlur stdDeviation="2.5" />
                      <feComposite in2="hardAlpha" operator="out" />
                      <feColorMatrix
                        type="matrix"
                        values="0 0 0 0 1 0 0 0 0 0.690196 0 0 0 0 0.192157 0 0 0 0.32 0"
                      />
                      <feBlend
                        mode="normal"
                        in2="BackgroundImageFix"
                        result="effect1_dropShadow_1723_508"
                      />
                      <feBlend
                        mode="normal"
                        in="SourceGraphic"
                        in2="effect1_dropShadow_1723_508"
                        result="shape"
                      />
                    </filter>
                    <clipPath id="clip0_1723_508">
                      <rect width="301" height="224" fill="white" />
                    </clipPath>
                  </defs>
                </svg>